<svg width="87" height="16" viewBox="0 0 87 16" fill="none" xmlns="http://www.w3.org/2000/svg">
<path d="M8.04718 16C5.78099 16 3.87324 15.2068 2.32394 13.6203C0.774648 12.0338 0 10.1378 0 7.93249C0 5.74965 0.780516 3.88186 2.34155 2.32911C3.90258 0.776371 5.80446 0 8.04718 0C8.96268 0 9.84988 0.146047 10.7088 0.438143C11.5677 0.730238 12.3291 1.18053 12.993 1.78903L15.9507 4.48945L13.5563 6.68354L10.8915 4.18869C10.5171 3.82931 10.0813 3.57018 9.58416 3.41131C9.08674 3.25243 8.5804 3.173 8.06514 3.173C6.71514 3.173 5.58509 3.63837 4.675 4.56911C3.76491 5.50008 3.30986 6.62526 3.30986 7.94464C3.30986 9.28675 3.75892 10.436 4.65704 11.3924C5.55493 12.3488 6.69038 12.827 8.06338 12.827C8.57981 12.827 9.0811 12.7479 9.56725 12.5897C10.0536 12.4313 10.4913 12.1841 10.8803 11.8481L22.007 1.78903C22.6709 1.18053 23.4323 0.730238 24.2912 0.438143C25.1501 0.146047 26.0256 0 26.9176 0C29.1838 0 31.0974 0.776371 32.6585 2.32911C34.2195 3.88186 35 5.74965 35 7.93249C35 10.1378 34.2195 12.0338 32.6585 13.6203C31.0974 15.2068 29.1838 16 26.9176 16C26.0256 16 25.1443 15.8596 24.2736 15.5787C23.4029 15.2979 22.6474 14.8532 22.007 14.2447L19.1549 11.5443L21.5141 9.35021L24.1187 11.8481C24.4715 12.1857 24.8944 12.4332 25.3873 12.5907C25.8803 12.7482 26.385 12.827 26.9014 12.827C28.2744 12.827 29.4157 12.347 30.3254 11.387C31.2352 10.4272 31.6901 9.27955 31.6901 7.94397C31.6901 6.63111 31.2293 5.50774 30.3077 4.57384C29.3864 3.63994 28.2509 3.173 26.9014 3.173C26.385 3.173 25.8837 3.26335 25.3975 3.44405C24.9111 3.62498 24.4852 3.88343 24.1197 4.21941L12.993 14.2785C12.3291 14.8645 11.5619 15.2979 10.6912 15.5787C9.82054 15.8596 8.9392 16 8.04718 16Z" fill="white"/>
<path d="M49.096 1.33V16H46.54V15.028C45.568 15.676 44.506 16 43.354 16C41.77 16 40.414 15.442 39.286 14.326C38.17 13.198 37.612 11.842 37.612 10.258C37.612 8.674 38.17 7.324 39.286 6.208C40.414 5.08 41.77 4.516 43.354 4.516C44.506 4.516 45.568 4.84 46.54 5.488V1.33H49.096ZM41.104 12.508C41.728 13.132 42.478 13.444 43.354 13.444C44.23 13.444 44.98 13.132 45.604 12.508C46.228 11.884 46.54 11.134 46.54 10.258C46.54 9.382 46.228 8.632 45.604 8.008C44.98 7.384 44.23 7.072 43.354 7.072C42.478 7.072 41.728 7.384 41.104 8.008C40.48 8.632 40.168 9.382 40.168 10.258C40.168 11.134 40.48 11.884 41.104 12.508ZM51.9937 6.208C53.1217 5.08 54.4777 4.516 56.0617 4.516C57.6457 4.516 58.9957 5.08 60.1117 6.208C61.2397 7.324 61.8037 8.674 61.8037 10.258C61.8037 10.522 61.7857 10.78 61.7497 11.032H52.9657C53.1337 11.728 53.5057 12.304 54.0817 12.76C54.6577 13.216 55.3177 13.444 56.0617 13.444C56.8297 13.444 57.5137 13.192 58.1137 12.688H61.2457C60.7777 13.684 60.0757 14.488 59.1397 15.1C58.2157 15.7 57.1897 16 56.0617 16C54.4777 16 53.1217 15.442 51.9937 14.326C50.8777 13.198 50.3197 11.842 50.3197 10.258C50.3197 8.674 50.8777 7.324 51.9937 6.208ZM53.0737 9.124H59.0317C58.8037 8.512 58.4197 8.014 57.8797 7.63C57.3397 7.246 56.7337 7.054 56.0617 7.054C55.3897 7.054 54.7777 7.246 54.2257 7.63C53.6857 8.014 53.3017 8.512 53.0737 9.124ZM72.8044 14.326C71.6884 15.442 70.3384 16 68.7544 16C67.1704 16 65.8144 15.442 64.6864 14.326C63.5704 13.198 63.0124 11.842 63.0124 10.258C63.0124 8.674 63.5704 7.324 64.6864 6.208C65.8144 5.08 67.1704 4.516 68.7544 4.516C70.3384 4.516 71.6884 5.08 72.8044 6.208C73.9324 7.324 74.4964 8.674 74.4964 10.258C74.4964 11.842 73.9324 13.198 72.8044 14.326ZM66.5044 12.508C67.1284 13.132 67.8784 13.444 68.7544 13.444C69.6304 13.444 70.3804 13.132 71.0044 12.508C71.6284 11.884 71.9404 11.134 71.9404 10.258C71.9404 9.37 71.6284 8.614 71.0044 7.99C70.3804 7.366 69.6304 7.054 68.7544 7.054C67.8784 7.054 67.1284 7.366 66.5044 7.99C65.8804 8.614 65.5684 9.37 65.5684 10.258C65.5684 11.134 65.8804 11.884 66.5044 12.508ZM85.9458 9.61V16H83.4078V9.61C83.4078 8.902 83.1558 8.302 82.6518 7.81C82.1478 7.306 81.5478 7.054 80.8518 7.054C80.1558 7.054 79.5558 7.306 79.0518 7.81C78.5478 8.302 78.2958 8.902 78.2958 9.61V16H75.7398V4.516H78.2958V5.2C79.0998 4.744 79.9518 4.516 80.8518 4.516C82.2558 4.516 83.4558 5.014 84.4518 6.01C85.4478 7.006 85.9458 8.206 85.9458 9.61Z" fill="white"/>
</svg>
